G04 ================== begin FILE IDENTIFICATION RECORD ==================*
G04 Layout Name:  d:/Project/Circuit/ORCAD/FP/01v2/pcb/fp_01v2.brd*
G04 Film Name:    BOARD*
G04 File Format:  Gerber RS274X*
G04 File Origin:  Cadence Allegro 16.6-S016*
G04 Origin Date:  Tue Oct 08 10:46:47 2013*
G04 *
G04 Layer:  BOARD GEOMETRY/OUTLINE*
G04 Layer:  BOARD GEOMETRY/NCROUTE_PATH*
G04 *
G04 Offset:    (0.000 0.000)*
G04 Mirror:    No*
G04 Mode:      Positive*
G04 Rotation:  0*
G04 FullContactRelief:  No*
G04 UndefLineWidth:     0.250*
G04 ================== end FILE IDENTIFICATION RECORD ====================*
%FSLAX34Y34*MOMM*%
%IR0*IPPOS*OFA0.00000B0.00000*MIA0B0*SFA1.00000B1.00000*%
%ADD10C,.1*%
%ADD11C,.25*%
G75*
%LPD*%
G75*
G54D10*
G01X-50000Y-47500D02*
X45000D01*
G02X57500Y-60000I0J-12500D01*
G02X45000Y-72500I-12500J0D01*
G01X-50000D01*
G02X-62500Y-60000I0J12500D01*
G02X-50000Y-47500I12500J0D01*
G01X-47500Y72500D02*
X47500D01*
G02X60000Y60000I0J-12500D01*
G02X47500Y47500I-12500J0D01*
G01X-47500D01*
G02X-60000Y60000I0J12500D01*
G02X-47500Y72500I12500J0D01*
G01X307430Y-297490D02*
Y-202490D01*
G02X319930Y-189990I12500J0D01*
G02X332430Y-202490I0J-12500D01*
G01Y-297490D01*
G02X319930Y-309990I-12500J0D01*
G02X307430Y-297490I0J12500D01*
G01X352500Y-82500D02*
X482500D01*
G02X495000Y-95000I0J-12500D01*
G01Y-100000D01*
G03X507500Y-112500I12500J0D01*
G01X607500D01*
G02X620000Y-125000I0J-12500D01*
G02X607500Y-137500I-12500J0D01*
G01X482500D01*
G02X470000Y-125000I0J12500D01*
G01Y-120000D01*
G03X457500Y-107500I-12500J0D01*
G01X352500D01*
G02X340000Y-95000I0J12500D01*
G02X352500Y-82500I12500J0D01*
G01X550000Y137500D02*
X482500D01*
G03X470000Y125000I0J-12500D01*
G01Y120000D01*
G02X457500Y107500I-12500J0D01*
G01X352500D01*
G03X340000Y95000I0J-12500D01*
G03X352500Y82500I12500J0D01*
G01X482500D01*
G03X495000Y95000I0J12500D01*
G01Y100000D01*
G02X507500Y112500I12500J0D01*
G01X607500D01*
G03X620000Y125000I0J12500D01*
G03X607500Y137500I-12500J0D01*
G01X550000D01*
G01X307500Y202500D02*
Y297500D01*
G02X320000Y310000I12500J0D01*
G02X332500Y297500I0J-12500D01*
G01Y202500D01*
G02X320000Y190000I-12500J0D01*
G02X307500Y202500I0J12500D01*
G54D11*
G01X20000Y-415000D02*
Y-315000D01*
X-85000D01*
Y-170000D01*
X-140000D01*
Y170000D01*
X-85000D01*
Y315000D01*
X20000D01*
Y415000D01*
X1600000D01*
Y315000D01*
X1705000D01*
Y120000D01*
X1760000D01*
Y-120000D01*
X1705000D01*
Y-315000D01*
X1600000D01*
Y-415000D01*
X20000D01*
M02*
