G04 ================== begin FILE IDENTIFICATION RECORD ==================*
G04 Layout Name:  d:/Project/Circuit/ORCAD/FP/01v2/pcb/fp_01v2.brd*
G04 Film Name:    BOTTOM*
G04 File Format:  Gerber RS274X*
G04 File Origin:  Cadence Allegro 16.6-S016*
G04 Origin Date:  Tue Oct 08 10:46:47 2013*
G04 *
G04 Layer:  VIA CLASS/BOTTOM*
G04 Layer:  PIN/BOTTOM*
G04 Layer:  ETCH/BOTTOM*
G04 *
G04 Offset:    (0.000 0.000)*
G04 Mirror:    No*
G04 Mode:      Positive*
G04 Rotation:  0*
G04 FullContactRelief:  No*
G04 UndefLineWidth:     0.250*
G04 ================== end FILE IDENTIFICATION RECORD ====================*
%FSLAX34Y34*MOMM*%
%IR0*IPPOS*OFA0.00000B0.00000*MIA0B0*SFA1.00000B1.00000*%
%ADD16C,2.*%
%ADD18C,3.1*%
%ADD14C,1.6*%
%ADD13C,5.2*%
%ADD11C,2.5*%
%ADD17C,1.8*%
%ADD15C,2.25*%
%ADD10R,2.25X2.25*%
%ADD19R,3.1X3.1*%
%ADD12R,2.5X2.5*%
%ADD20C,1.1*%
%ADD24C,3.004*%
%ADD23C,3.204*%
%ADD25C,4.304*%
%ADD21C,3.704*%
%ADD22C,3.454*%
G75*
%LPD*%
G75*
G36*
G01X-40000Y-95000D02*
G02X-30620Y-85020I9999J0D01*
G02X-30550I35J-997D01*
G01X-15890D01*
G02X-14990Y-85590I-3J-1000D01*
G01X-14090Y-87490D01*
X-14160Y-88060D01*
X-14340Y-88280D01*
G03X12920Y-86740I14336J-11722D01*
G01X12770Y-86590D01*
X12620Y-86230D01*
Y-86020D01*
G02X13620Y-85020I1000J0D01*
G01X15600D01*
X15670D01*
G02X25000Y-95000I-673J-9980D01*
G01Y-125000D01*
G03X35000Y-135000I10000J0D01*
G01X161010D01*
G02X161910Y-135570I-2J-999D01*
G01X162820Y-137450D01*
X162760Y-138020D01*
X162580Y-138250D01*
G03X265100Y-224520I52423J-41753D01*
G02X266220Y-224260I745J-665D01*
G03X270000Y-225000I3775J9261D01*
G01X290000D01*
G02X299910Y-233680I0J-9997D01*
G02X299870Y-234140I-990J-146D01*
G03X299560Y-235070I46346J-15965D01*
G01X299500Y-235260D01*
X299260Y-235550D01*
X297720Y-236400D01*
X297360Y-236450D01*
X297170Y-236400D01*
G03Y-263600I-3420J-13600D01*
G01X297360Y-263550D01*
X297720Y-263600D01*
X299260Y-264450D01*
X299500Y-264740D01*
X299560Y-264930D01*
G03X299940Y-266090I46772J14680D01*
G01X300000Y-266250D01*
Y-280000D01*
G02X290000Y-290000I-10000J0D01*
G01X75000D01*
G02X65000Y-280000I0J10000D01*
G03X55000Y-270000I-10000J0D01*
G01X-30000D01*
G02X-40000Y-260000I0J10000D01*
G01Y-95000D01*
G37*
G36*
G01X520000Y-85000D02*
G02X510000Y-75000I0J10000D01*
G01Y-65000D01*
G03X500000Y-55000I-10000J0D01*
G01X443880D01*
G02X443010Y-54500I-3J1001D01*
G01X442010Y-52760D01*
Y-52240D01*
X442150Y-52000D01*
G03X417850I-12150J7000D01*
G01X417990Y-52240D01*
Y-52760D01*
X416990Y-54500D01*
G02X416120Y-55000I-867J501D01*
G01X400000D01*
G02X390000Y-45000I0J10000D01*
G03X380000Y-35000I-10000J0D01*
G01X-30000D01*
G02X-40000Y-25000I0J10000D01*
G01Y25000D01*
G02X-30000Y35000I10000J0D01*
G01X375000D01*
G03X385000Y45000I0J10000D01*
G02X395000Y55000I10000J0D01*
G01X416120D01*
G02X416990Y54500I3J-1001D01*
G01X417990Y52760D01*
Y52240D01*
X417850Y52000D01*
G03X442150I12150J-7000D01*
G01X442010Y52240D01*
Y52760D01*
X443010Y54500D01*
G02X443880Y55000I867J-501D01*
G01X500000D01*
G03X510000Y65000I0J10000D01*
G01Y75000D01*
G02X520000Y85000I10000J0D01*
G01X533850D01*
G02X534700Y84530I2J-1000D01*
G01X535740Y82860D01*
X535760Y82350D01*
X535650Y82110D01*
G03X564350I14350J-7110D01*
G01X564240Y82350D01*
X564260Y82860D01*
X565300Y84530D01*
G02X566150Y85000I848J-530D01*
G01X570000D01*
G02X580000Y75000I0J-10000D01*
G01Y-75000D01*
G02X570000Y-85000I-10000J0D01*
G01X566150D01*
G02X565300Y-84530I-2J1000D01*
G01X564260Y-82860D01*
X564240Y-82350D01*
X564350Y-82110D01*
G03X535650I-14350J7110D01*
G01X535760Y-82350D01*
X535740Y-82860D01*
X534700Y-84530D01*
G02X533850Y-85000I-848J530D01*
G01X520000D01*
G37*
G36*
G01X-30000Y85020D02*
X-30550D01*
G02X-30620I-35J997D01*
G02X-40000Y95000I619J9980D01*
G01Y260000D01*
G02X-30000Y270000I10000J0D01*
G01X55000D01*
G03X65000Y280000I0J10000D01*
G02X75000Y290000I10000J0D01*
G01X290000D01*
G02X300000Y280000I0J-10000D01*
G01Y266250D01*
X299940Y266090D01*
G03X299560Y264930I46392J-15840D01*
G01X299500Y264740D01*
X299260Y264450D01*
X297720Y263600D01*
X297360Y263550D01*
X297170Y263600D01*
G03Y236400I-3420J-13600D01*
G01X297360Y236450D01*
X297720Y236400D01*
X299260Y235550D01*
X299500Y235260D01*
X299560Y235070D01*
G03X299870Y234140I46656J15035D01*
G02X299910Y233680I-950J-314D01*
G02X290000Y225000I-9910J1317D01*
G01X270000D01*
G03X266220Y224260I-5J-10001D01*
G02X265100Y224520I-375J925D01*
G03X162580Y138250I-50097J-44517D01*
G01X162760Y138020D01*
X162820Y137450D01*
X161910Y135570D01*
G02X161010Y135000I-902J429D01*
G01X35000D01*
G03X25000Y125000I0J-10000D01*
G01Y95000D01*
G02X21900Y87760I-10004J0D01*
G02X20820Y87570I-685J727D01*
G01X19130Y88290D01*
G02X18520Y89210I389J920D01*
G01Y117520D01*
G03X17520Y118520I-1000J0D01*
G01X-17520D01*
G03X-18520Y117520I0J-1000D01*
G01Y86020D01*
G02X-19520Y85020I-1000J0D01*
G01X-30000D01*
G37*
G36*
G01X417990Y-137750D02*
X417860Y-137990D01*
G03X444020Y-144810I12141J-7013D01*
G01X442050Y-137770D01*
G02X442150Y-137010I964J260D01*
G01X443000Y-135510D01*
G02X443330Y-135170I863J-507D01*
G01X443350Y-135160D01*
G02X443890Y-135000I542J-839D01*
G01X445000D01*
G02X455000Y-145000I0J-10000D01*
G03X465000Y-155000I10000J0D01*
G01X680000D01*
G03X690000Y-145000I0J10000D01*
G01Y-55000D01*
G02X700000Y-45000I10000J0D01*
G01X880000D01*
G02X890000Y-55000I0J-10000D01*
G01Y-260000D01*
G02X880000Y-270000I-10000J0D01*
G01X350000D01*
G02X343310Y-267420I9J9986D01*
G02X343060Y-266270I667J747D01*
G01X343830Y-264540D01*
G02X344230Y-264090I915J-410D01*
G01X344380Y-264000D01*
X344690Y-263930D01*
X344850Y-263950D01*
G03X342840Y-236400I1399J13950D01*
G01X342650Y-236450D01*
X342280Y-236400D01*
X340930Y-235660D01*
G02X340650Y-235430I485J876D01*
G01X340500Y-235250D01*
X340440Y-235060D01*
G03X340060Y-233910I-46734J-14805D01*
G01X340010Y-233770D01*
X340000Y-233590D01*
Y-145000D01*
G02X350000Y-135000I10000J0D01*
G01X416130D01*
G02X416630Y-135140I-10J-999D01*
G02X417000Y-135500I-489J-873D01*
G01X417990Y-137230D01*
Y-137750D01*
G37*
G36*
G01X465000Y155000D02*
G03X455000Y145000I0J-10000D01*
G02X445000Y135000I-10000J0D01*
G01X443920D01*
G02X443470Y135110I6J998D01*
G01X443400Y135140D01*
G02X442970Y135550I444J896D01*
G01X442790Y135870D01*
X442780Y135880D01*
X442010Y137230D01*
Y137750D01*
X442140Y137990D01*
G03X415980Y144810I-12141J7013D01*
G01X417950Y137790D01*
G02X417860Y137030I-965J-271D01*
G01X417010Y135540D01*
G02X416510Y135100I-871J486D01*
G01X416440Y135070D01*
G02X416070Y135000I-368J930D01*
G01X350000D01*
G02X340000Y145000I0J10000D01*
G01Y233590D01*
X340010Y233770D01*
X340060Y233910D01*
G03X340440Y235060I-46354J15955D01*
G01X340500Y235250D01*
X340730Y235540D01*
X342280Y236400D01*
X342650Y236450D01*
X342840Y236400D01*
G03X345060Y263950I3427J13588D01*
G01X344750D01*
G02X343840Y264530I-2J1001D01*
G01X342950Y266490D01*
X342990Y267000D01*
X343120Y267200D01*
G02X343310Y267420I846J-539D01*
G02X350000Y270000I6699J-7406D01*
G01X880000D01*
G02X890000Y260000I0J-10000D01*
G01Y55000D01*
G02X880000Y45000I-10000J0D01*
G01X700000D01*
G02X690000Y55000I0J10000D01*
G01Y145000D01*
G03X680000Y155000I-10000J0D01*
G01X465000D01*
G37*
G36*
G01X1240000Y-174000D02*
Y-36000D01*
G02X1241000Y-35000I1000J0D01*
G01X1512520D01*
G02X1513450Y-35630I1J-1000D01*
G01X1514260Y-37640D01*
X1514130Y-38220D01*
X1513910Y-38440D01*
G03X1536090I11090J-11560D01*
G01X1535870Y-38220D01*
X1535740Y-37640D01*
X1536550Y-35630D01*
G02X1537480Y-35000I929J-370D01*
G01X1600480D01*
G02X1601480Y-36000I0J-1000D01*
G01Y-67520D01*
G03X1602480Y-68520I1000J0D01*
G01X1637520D01*
G03X1638520Y-67520I0J1000D01*
G01Y-36000D01*
G02X1639520Y-35000I1000J0D01*
G01X1659000D01*
G02X1660000Y-36000I0J-1000D01*
G01Y-174000D01*
G02X1659000Y-175000I-1000J0D01*
G01X1241000D01*
G02X1240000Y-174000I0J1000D01*
G37*
G36*
G01Y36000D02*
Y169000D01*
G02X1241000Y170000I1000J0D01*
G01X1659000D01*
G02X1660000Y169000I0J-1000D01*
G01Y36000D01*
G02X1659000Y35000I-1000J0D01*
G01X1635880D01*
G02X1634970Y35570I-7J1001D01*
G01X1634070Y37470D01*
X1634140Y38040D01*
X1634330Y38270D01*
G03X1605670I-14330J11730D01*
G01X1605860Y38040D01*
X1605930Y37470D01*
X1605030Y35570D01*
G02X1604120Y35000I-903J431D01*
G01X1537480D01*
G02X1536550Y35630I-1J1000D01*
G01X1535740Y37640D01*
X1535870Y38220D01*
X1536090Y38440D01*
G03X1513910I-11090J11560D01*
G01X1514130Y38220D01*
X1514260Y37640D01*
X1513450Y35630D01*
G02X1512520Y35000I-929J370D01*
G01X1241000D01*
G02X1240000Y36000I0J1000D01*
G37*
%LPC*%
G75*
G36*
G01X-16270Y-132730D02*
X16270D01*
G02X17270Y-133730I0J-1000D01*
G01Y-166270D01*
G02X16270Y-167270I-1000J0D01*
G01X-16270D01*
G02X-17270Y-166270I0J1000D01*
G01Y-133730D01*
G02X-16270Y-132730I1000J0D01*
G37*
G36*
G01Y167270D02*
X16270D01*
G02X17270Y166270I0J-1000D01*
G01Y133730D01*
G02X16270Y132730I-1000J0D01*
G01X-16270D01*
G02X-17270Y133730I0J1000D01*
G01Y166270D01*
G02X-16270Y167270I1000J0D01*
G37*
G36*
G01X773730Y-92730D02*
X806270D01*
G02X807270Y-93730I0J-1000D01*
G01Y-126270D01*
G02X806270Y-127270I-1000J0D01*
G01X773730D01*
G02X772730Y-126270I0J1000D01*
G01Y-93730D01*
G02X773730Y-92730I1000J0D01*
G37*
G36*
G01X843480Y95520D02*
G02X844480Y96520I1000J0D01*
G01X885520D01*
G02X886520Y95520I0J-1000D01*
G01Y54480D01*
G02X885520Y53480I-1000J0D01*
G01X844480D01*
G02X843480Y54480I0J1000D01*
G01Y95520D01*
G37*
G54D24*
X710000Y-75000D03*
Y75000D03*
X1425000Y-75000D03*
Y75000D03*
G54D23*
X550000Y-175000D03*
Y175000D03*
G54D25*
X865000Y-75000D03*
X1265000D03*
Y75000D03*
G54D21*
X0Y0D03*
G54D22*
X430000Y-210000D03*
Y210000D03*
X790000Y110000D03*
X1340000Y-110000D03*
Y110000D03*
%LPD*%
G75*
G54D10*
X0Y-150000D03*
Y150000D03*
X790000Y-110000D03*
G54D20*
G01X-18270Y-150000D02*
X0D01*
G01X-19520Y-100000D02*
X0D01*
G01X-19520Y0D02*
X0D01*
G01X-19520Y100000D02*
X0D01*
G01X-18270Y150000D02*
X0D01*
G01Y-168270D02*
Y-150000D01*
G01D02*
Y-131730D01*
G01Y-150000D02*
X18270D01*
G01X0Y-119520D02*
Y-100000D01*
G01D02*
X19520D01*
G01X0Y-19520D02*
Y0D01*
G01D02*
Y19520D01*
G01Y0D02*
X19520D01*
G01X0Y100000D02*
Y119520D01*
G01Y100000D02*
X19520D01*
G01X0Y131730D02*
Y150000D01*
G01D02*
Y168270D01*
G01Y150000D02*
X18270D01*
G01X293750Y-265020D02*
Y-250000D01*
G01D02*
Y-234980D01*
G01X278730Y-250000D02*
X293750D01*
G01Y234980D02*
Y250000D01*
G01D02*
Y265020D01*
G01X278730Y250000D02*
X293750D01*
G01X346250Y-265020D02*
Y-250000D01*
G01D02*
Y-234980D01*
G01Y-250000D02*
X361270D01*
G01X346250Y234980D02*
Y250000D01*
G01D02*
Y265020D01*
G01Y250000D02*
X361270D01*
G01X411730Y-210000D02*
X430000D01*
G01X414980Y-145000D02*
X430000D01*
G01X414980Y-45000D02*
X430000D01*
G01X414980Y45000D02*
X430000D01*
G01X414980Y145000D02*
X430000D01*
G01X411730Y210000D02*
X430000D01*
G01Y-228270D02*
Y-210000D01*
G01D02*
Y-191730D01*
G01Y-210000D02*
X448270D01*
G01X430000Y-160020D02*
Y-145000D01*
G01D02*
X445020D01*
G01X430000Y-45000D02*
Y-29980D01*
G01Y-45000D02*
X445020D01*
G01X430000Y29980D02*
Y45000D01*
G01D02*
X445020D01*
G01X430000Y145000D02*
Y160020D01*
G01Y145000D02*
X445020D01*
G01X430000Y191730D02*
Y210000D01*
G01D02*
Y228270D01*
G01Y210000D02*
X448270D01*
G01X532980Y-175000D02*
X550000D01*
G01X532980Y-75000D02*
X550000D01*
G01X532980Y75000D02*
X550000D01*
G01X532980Y175000D02*
X550000D01*
G01Y-192020D02*
Y-175000D01*
G01D02*
Y-157980D01*
G01Y-175000D02*
X567020D01*
G01X550000Y-75000D02*
Y-57980D01*
G01Y-75000D02*
X567020D01*
G01X550000Y57980D02*
Y75000D01*
G01D02*
X567020D01*
G01X550000Y157980D02*
Y175000D01*
G01D02*
Y192020D01*
G01Y175000D02*
X567020D01*
G01X693980Y-75000D02*
X710000D01*
G01X693980Y75000D02*
X710000D01*
G01Y-91020D02*
Y-75000D01*
G01D02*
Y-58980D01*
G01Y-75000D02*
X726020D01*
G01X710000Y58980D02*
Y75000D01*
G01D02*
Y91020D01*
G01Y75000D02*
X726020D01*
G01X771730Y-110000D02*
X790000D01*
G01X771730Y110000D02*
X790000D01*
G01Y-128270D02*
Y-110000D01*
G01D02*
Y-91730D01*
G01Y-110000D02*
X808270D01*
G01X790000Y91730D02*
Y110000D01*
G01D02*
Y128270D01*
G01Y110000D02*
X808270D01*
G01X865000Y-97520D02*
Y-75000D01*
G01D02*
Y-52480D01*
G01X842480Y-75000D02*
X865000D01*
G01D02*
X887520D01*
G01X865000Y52480D02*
Y75000D01*
G01D02*
Y97520D01*
G01X842480Y75000D02*
X865000D01*
G01D02*
X887520D01*
G01X1265000Y-97520D02*
Y-75000D01*
G01D02*
Y-52480D01*
G01X1242480Y-75000D02*
X1265000D01*
G01D02*
X1287520D01*
G01X1265000Y52480D02*
Y75000D01*
G01D02*
Y97520D01*
G01X1242480Y75000D02*
X1265000D01*
G01D02*
X1287520D01*
G01X1340000Y-128270D02*
Y-110000D01*
G01D02*
Y-91730D01*
G01X1321730Y-110000D02*
X1340000D01*
G01D02*
X1358270D01*
G01X1340000Y91730D02*
Y110000D01*
G01D02*
Y128270D01*
G01X1321730Y110000D02*
X1340000D01*
G01D02*
X1358270D01*
G01X1425000Y-91020D02*
Y-75000D01*
G01D02*
Y-58980D01*
G01X1408980Y-75000D02*
X1425000D01*
G01D02*
X1441020D01*
G01X1425000Y58980D02*
Y75000D01*
G01D02*
Y91020D01*
G01X1408980Y75000D02*
X1425000D01*
G01D02*
X1441020D01*
G01X1525000Y-67020D02*
Y-50000D01*
G01X1507980D02*
X1525000D01*
G01D02*
X1542020D01*
G01X1525000Y50000D02*
Y67020D01*
G01X1507980Y50000D02*
X1525000D01*
G01D02*
X1542020D01*
G01X1620000Y-69520D02*
Y-50000D01*
G01X1600480D02*
X1620000D01*
G01D02*
X1639520D01*
G01X1620000Y50000D02*
Y69520D01*
G01X1600480Y50000D02*
X1620000D01*
G01D02*
X1639520D01*
G54D11*
X0Y-100000D03*
Y0D03*
X1620000Y50000D03*
G54D12*
X0Y100000D03*
X1620000Y-50000D03*
G54D13*
X60000Y-375000D03*
Y375000D03*
X215000Y-180000D03*
Y180000D03*
X1065000Y0D03*
X1560000Y-375000D03*
Y375000D03*
G54D14*
X293750Y-250000D03*
Y250000D03*
X346250Y-250000D03*
Y250000D03*
X430000Y-145000D03*
Y-45000D03*
Y45000D03*
Y145000D03*
G54D15*
Y-210000D03*
Y210000D03*
X790000Y110000D03*
X1340000Y-110000D03*
Y110000D03*
G54D16*
X550000Y-175000D03*
Y-75000D03*
Y75000D03*
Y175000D03*
X1525000Y-50000D03*
Y50000D03*
G54D17*
X710000Y-75000D03*
Y75000D03*
X1425000Y-75000D03*
Y75000D03*
G54D18*
X865000Y-75000D03*
X1265000D03*
Y75000D03*
G54D19*
X865000D03*
M02*
