M48
METRIC,TZ
T01C1.1
T02C1.3
T03C1.5
T04C2.
T05C3.2
;LEADER: 12 
;HEADER: 
;CODE  : ASCII 
;FILE  : fp_01v2-1-2.drl for  ... layers TOP and BOTTOM
;T01 Holesize 1. = 1.100000 Tolerance = +0.000000/-0.000000 PLATED MM Quantity = 8
;T02 Holesize 2. = 1.300000 Tolerance = +0.000000/-0.000000 PLATED MM Quantity = 4
;T03 Holesize 3. = 1.500000 Tolerance = +0.000000/-0.000000 PLATED MM Quantity = 14
;T04 Holesize 4. = 2.000000 Tolerance = +0.000000/-0.000000 PLATED MM Quantity = 9
;T05 Holesize 5. = 3.200000 Tolerance = +0.000000/-0.000000 PLATED MM Quantity = 7
%
G90
T01
X430000Y145000
Y45000
Y-45000
Y-145000
X293750Y-250000
X346250
X293750Y250000
X346250
T02
X710000Y-75000
Y75000
X1425000Y-75000
Y75000
T03
X0Y-150000
X430000Y-210000
X790000Y-110000
X1340000
X790000Y110000
X1340000
X550000Y75000
Y175000
Y-175000
Y-75000
X1525000Y-50000
Y50000
X0Y150000
X430000Y210000
T04
X865000Y75000
X1265000
Y-75000
X865000
X0Y100000
R02Y-100000
X1620000Y-50000
Y50000
T05
X60000Y-375000
X215000Y-180000
X1065000Y0
X60000Y375000
X215000Y180000
X1560000Y375000
Y-375000
M30
