G04 ================== begin FILE IDENTIFICATION RECORD ==================*
G04 Layout Name:  d:/Project/Circuit/ORCAD/FP/01v2/pcb/fp_01v2.brd*
G04 Film Name:    MASK_BOT*
G04 File Format:  Gerber RS274X*
G04 File Origin:  Cadence Allegro 16.6-S016*
G04 Origin Date:  Thu Oct 10 12:07:51 2013*
G04 *
G04 Layer:  PACKAGE GEOMETRY/SOLDERMASK_BOTTOM*
G04 Layer:  PIN/SOLDERMASK_BOTTOM*
G04 Layer:  VIA CLASS/SOLDERMASK_BOTTOM*
G04 *
G04 Offset:    (0.000 0.000)*
G04 Mirror:    No*
G04 Mode:      Positive*
G04 Rotation:  0*
G04 FullContactRelief:  No*
G04 UndefLineWidth:     0.000*
G04 ================== end FILE IDENTIFICATION RECORD ====================*
%FSLAX34Y34*MOMM*%
%IR0*IPPOS*OFA0.00000B0.00000*MIA0B0*SFA1.00000B1.00000*%
%ADD17C,2.*%
%ADD16C,2.2*%
%ADD18C,3.3*%
%ADD14C,1.8*%
%ADD13C,5.4*%
%ADD11C,2.7*%
%ADD15C,2.45*%
%ADD10R,2.45X2.45*%
%ADD19R,3.3X3.3*%
%ADD12R,2.7X2.7*%
G75*
%LPD*%
G75*
G36*
G01X45000Y-44500D02*
G02Y-75500I0J-15500D01*
G01X-50000D01*
G02Y-44500I0J15500D01*
G01X45000D01*
G37*
G36*
G01X47500Y75500D02*
G02Y44500I0J-15500D01*
G01X-47500D01*
G02Y75500I0J15500D01*
G01X47500D01*
G37*
G36*
G01X482500Y-79500D02*
G02X498000Y-95000I0J-15500D01*
G01Y-100000D01*
G03X507500Y-109500I9500J0D01*
G01X607500D01*
G02Y-140500I0J-15500D01*
G01X482500D01*
G02X467000Y-125000I0J15500D01*
G01Y-120000D01*
G03X457500Y-110500I-9500J0D01*
G01X352500D01*
G02Y-79500I0J15500D01*
G01X482500D01*
G37*
G36*
G01X467000Y125000D02*
G02X482500Y140500I15500J0D01*
G01X607500D01*
G02Y109500I0J-15500D01*
G01X507500D01*
G03X498000Y100000I0J-9500D01*
G01Y95000D01*
G02X482500Y79500I-15500J0D01*
G01X352500D01*
G02Y110500I0J15500D01*
G01X457500D01*
G03X467000Y120000I0J9500D01*
G01Y125000D01*
G37*
G36*
G01X1077500Y-204500D02*
G02Y-235500I0J-15500D01*
G01X1052500D01*
G02Y-204500I0J15500D01*
G01X1077500D01*
G37*
G36*
G01Y-39500D02*
G02Y-70500I0J-15500D01*
G01X1052500D01*
G02Y-39500I0J15500D01*
G01X1077500D01*
G37*
G36*
G01Y70500D02*
G02Y39500I0J-15500D01*
G01X1052500D01*
G02Y70500I0J15500D01*
G01X1077500D01*
G37*
G36*
G01Y235500D02*
G02Y204500I0J-15500D01*
G01X1052500D01*
G02Y235500I0J15500D01*
G01X1077500D01*
G37*
G54D10*
X0Y-150000D03*
Y150000D03*
X790000Y-110000D03*
G54D11*
X0Y-100000D03*
Y0D03*
X1620000Y50000D03*
G54D12*
X0Y100000D03*
X1620000Y-50000D03*
G54D13*
X60000Y-375000D03*
Y375000D03*
X215000Y-180000D03*
Y180000D03*
X1065000Y0D03*
X1560000Y-375000D03*
Y375000D03*
G54D14*
X293750Y-250000D03*
Y250000D03*
X346250Y-250000D03*
Y250000D03*
X430000Y-145000D03*
Y-45000D03*
Y45000D03*
Y145000D03*
G54D15*
Y-210000D03*
Y210000D03*
X790000Y110000D03*
X1340000Y-110000D03*
Y110000D03*
G54D16*
X550000Y-175000D03*
Y-75000D03*
Y75000D03*
Y175000D03*
X1525000Y-50000D03*
Y50000D03*
G54D17*
X710000Y-75000D03*
Y75000D03*
X1425000Y-75000D03*
Y75000D03*
G54D18*
X865000Y-75000D03*
X1265000D03*
Y75000D03*
G54D19*
X865000D03*
M02*
