G04 ================== begin FILE IDENTIFICATION RECORD ==================*
G04 Layout Name:  d:/Project/Circuit/ORCAD/FP/01v2/pcb/fp_01v2.brd*
G04 Film Name:    TOP*
G04 File Format:  Gerber RS274X*
G04 File Origin:  Cadence Allegro 16.6-S016*
G04 Origin Date:  Thu Oct 10 12:07:51 2013*
G04 *
G04 Layer:  VIA CLASS/TOP*
G04 Layer:  PIN/TOP*
G04 Layer:  ETCH/TOP*
G04 *
G04 Offset:    (0.000 0.000)*
G04 Mirror:    No*
G04 Mode:      Positive*
G04 Rotation:  0*
G04 FullContactRelief:  No*
G04 UndefLineWidth:     0.250*
G04 ================== end FILE IDENTIFICATION RECORD ====================*
%FSLAX34Y34*MOMM*%
%IR0*IPPOS*OFA0.00000B0.00000*MIA0B0*SFA1.00000B1.00000*%
%ADD16C,2.*%
%ADD18C,3.1*%
%ADD14C,1.6*%
%ADD13C,5.2*%
%ADD11C,2.5*%
%ADD17C,1.8*%
%ADD15C,2.25*%
%ADD10R,2.25X2.25*%
%ADD19R,3.1X3.1*%
%ADD12R,2.5X2.5*%
%ADD20C,.25*%
G75*
%LPD*%
G75*
G54D10*
X0Y-150000D03*
Y150000D03*
X790000Y-110000D03*
G54D20*
G01X-34510Y183650D02*
X-24550Y202700D01*
G01X-34510D02*
X-24550Y183650D01*
G01X-10480D02*
Y202700D01*
X-13320Y198890D01*
G01Y183650D02*
X-7640D01*
G01X305950Y-317710D02*
Y-336760D01*
X315430D01*
G01X325240Y-320880D02*
X326660Y-318980D01*
X328320Y-318030D01*
X330210Y-317710D01*
X332580Y-318340D01*
X334240Y-319930D01*
X334720Y-321840D01*
X334480Y-323740D01*
X333530Y-325330D01*
X328790Y-328510D01*
X326660Y-330730D01*
X325240Y-333900D01*
X324760Y-336760D01*
X334720D01*
G01X305740Y332700D02*
Y313650D01*
X315220D01*
G01X329530D02*
Y332700D01*
X326690Y328890D01*
G01Y313650D02*
X332370D01*
G01X465900Y-159300D02*
X464480Y-158340D01*
X462820Y-157710D01*
X460930D01*
X458790Y-158660D01*
X457140Y-160250D01*
X455950Y-162160D01*
X455000Y-165330D01*
X454760Y-168190D01*
X455240Y-171050D01*
X455950Y-172950D01*
X457370Y-174860D01*
X459030Y-176130D01*
X460690Y-176760D01*
X462350D01*
X464010Y-176130D01*
X465430Y-175170D01*
X466620Y-173900D01*
G01X474530Y-172950D02*
X475950Y-175170D01*
X477840Y-176440D01*
X479980Y-176760D01*
X481870Y-176440D01*
X483770Y-174860D01*
X484950Y-172950D01*
X485190Y-171050D01*
X484720Y-168820D01*
X483060Y-167240D01*
X481400Y-166600D01*
X479270D01*
G01X481400D02*
X482820Y-165650D01*
X484010Y-164060D01*
X484480Y-162160D01*
X484010Y-160250D01*
X482820Y-158660D01*
X480690Y-157710D01*
X478560Y-158030D01*
X476420Y-159300D01*
G01X455900Y180700D02*
X454480Y181660D01*
X452820Y182290D01*
X450930D01*
X448790Y181340D01*
X447140Y179750D01*
X445950Y177840D01*
X445000Y174670D01*
X444760Y171810D01*
X445240Y168950D01*
X445950Y167050D01*
X447370Y165140D01*
X449030Y163870D01*
X450690Y163240D01*
X452350D01*
X454010Y163870D01*
X455430Y164830D01*
X456620Y166100D01*
G01X465240Y179120D02*
X466660Y181020D01*
X468320Y181970D01*
X470210Y182290D01*
X472580Y181660D01*
X474240Y180070D01*
X474720Y178160D01*
X474480Y176260D01*
X473530Y174670D01*
X468790Y171490D01*
X466660Y169270D01*
X465240Y166100D01*
X464760Y163240D01*
X474720D01*
G01X535950Y-276760D02*
Y-257710D01*
X541870D01*
X543770Y-258660D01*
X544960Y-259930D01*
X545430Y-262470D01*
X544960Y-265010D01*
X543530Y-266600D01*
X541870Y-267550D01*
X535950D01*
G01X541870D02*
X545430Y-276760D01*
G01X554530Y-257710D02*
Y-271360D01*
X555470Y-274220D01*
X557370Y-276130D01*
X559740Y-276760D01*
X562110Y-276130D01*
X564010Y-274220D01*
X564950Y-271360D01*
Y-257710D01*
G01X574290Y-260880D02*
X575710Y-258980D01*
X577370Y-258030D01*
X579260Y-257710D01*
X581630Y-258340D01*
X583290Y-259930D01*
X583770Y-261840D01*
X583530Y-263740D01*
X582580Y-265330D01*
X577840Y-268510D01*
X575710Y-270730D01*
X574290Y-273900D01*
X573810Y-276760D01*
X583770D01*
G01X535950Y253240D02*
Y272290D01*
X541870D01*
X543770Y271340D01*
X544960Y270070D01*
X545430Y267530D01*
X544960Y264990D01*
X543530Y263400D01*
X541870Y262450D01*
X535950D01*
G01X541870D02*
X545430Y253240D01*
G01X554530Y272290D02*
Y258640D01*
X555470Y255780D01*
X557370Y253870D01*
X559740Y253240D01*
X562110Y253870D01*
X564010Y255780D01*
X564950Y258640D01*
Y272290D01*
G01X578790Y253240D02*
Y272290D01*
X575950Y268480D01*
G01Y253240D02*
X581630D01*
G01X705900Y130700D02*
X704480Y131660D01*
X702820Y132290D01*
X700930D01*
X698790Y131340D01*
X697140Y129750D01*
X695950Y127840D01*
X695000Y124670D01*
X694760Y121810D01*
X695240Y118950D01*
X695950Y117050D01*
X697370Y115140D01*
X699030Y113870D01*
X700690Y113240D01*
X702350D01*
X704010Y113870D01*
X705430Y114830D01*
X706620Y116100D01*
G01X719740Y113240D02*
Y132290D01*
X716900Y128480D01*
G01Y113240D02*
X722580D01*
G01X965950Y242290D02*
Y223240D01*
X975430D01*
G01X984530Y227050D02*
X985950Y224830D01*
X987840Y223560D01*
X989980Y223240D01*
X991870Y223560D01*
X993770Y225140D01*
X994950Y227050D01*
X995190Y228950D01*
X994720Y231180D01*
X993060Y232760D01*
X991400Y233400D01*
X989270D01*
G01X991400D02*
X992820Y234350D01*
X994010Y235940D01*
X994480Y237840D01*
X994010Y239750D01*
X992820Y241340D01*
X990690Y242290D01*
X988560Y241970D01*
X986420Y240700D01*
G01X1040480Y303650D02*
X1038580Y303970D01*
X1036930Y305240D01*
X1035500Y307140D01*
X1034550Y309360D01*
X1034080Y311900D01*
Y314450D01*
X1034550Y316990D01*
X1035500Y319210D01*
X1036930Y321110D01*
X1038580Y322380D01*
X1040480Y322700D01*
X1042380Y322380D01*
X1044030Y321110D01*
X1045460Y319210D01*
X1046410Y316990D01*
X1046880Y314450D01*
Y311900D01*
X1046410Y309360D01*
X1045460Y307140D01*
X1044030Y305240D01*
X1042380Y303970D01*
X1040480Y303650D01*
G01X1063320Y314760D02*
X1061660Y316030D01*
X1060240Y316350D01*
X1058350Y315710D01*
X1056920Y314450D01*
X1055980Y312220D01*
X1055740Y310000D01*
X1055980Y307780D01*
X1056920Y305870D01*
X1058350Y304280D01*
X1060240Y303650D01*
X1061900Y304280D01*
X1063320Y305550D01*
G01X1078580Y322700D02*
Y303650D01*
G01X1075260Y316350D02*
X1081900D01*
G01X1097630Y303650D02*
X1096210Y303970D01*
X1094790Y305240D01*
X1093840Y307460D01*
X1093360Y310000D01*
X1093840Y312540D01*
X1094790Y314760D01*
X1096210Y316030D01*
X1097630Y316350D01*
X1099050Y316030D01*
X1100470Y314760D01*
X1101420Y312540D01*
X1101660Y310000D01*
X1101420Y307460D01*
X1100470Y305240D01*
X1099050Y303970D01*
X1097630Y303650D01*
G01X1112410D02*
Y322700D01*
G01Y313170D02*
X1113600Y315080D01*
X1115020Y316030D01*
X1116440Y316350D01*
X1118580Y315710D01*
X1120000Y314450D01*
X1120950Y312220D01*
Y309680D01*
X1120470Y307140D01*
X1119520Y305240D01*
X1117860Y303970D01*
X1116440Y303650D01*
X1115020Y303970D01*
X1113600Y304920D01*
X1112410Y306510D01*
G01X1132180Y312220D02*
X1139760D01*
X1139050Y314450D01*
X1137860Y315710D01*
X1136200Y316350D01*
X1134550Y316030D01*
X1133120Y315080D01*
X1132180Y312860D01*
X1131700Y310950D01*
Y309050D01*
X1132180Y307140D01*
X1133360Y305240D01*
X1134780Y303970D01*
X1136440Y303650D01*
X1138100Y304280D01*
X1139760Y306190D01*
G01X1151460Y303650D02*
Y316350D01*
G01Y313810D02*
X1152650Y315080D01*
X1153830Y316030D01*
X1155490Y316350D01*
X1156680Y316030D01*
X1158100Y315080D01*
G01X1188380Y319530D02*
X1189800Y321430D01*
X1191460Y322380D01*
X1193350Y322700D01*
X1195720Y322070D01*
X1197380Y320480D01*
X1197860Y318570D01*
X1197620Y316670D01*
X1196670Y315080D01*
X1191930Y311900D01*
X1189800Y309680D01*
X1188380Y306510D01*
X1187900Y303650D01*
X1197860D01*
G01X1211930Y322700D02*
X1210030Y322070D01*
X1208610Y320480D01*
X1207660Y318570D01*
X1206950Y316030D01*
X1206720Y313170D01*
X1206950Y310320D01*
X1207660Y307780D01*
X1208610Y305870D01*
X1210030Y304280D01*
X1211930Y303650D01*
X1213830Y304280D01*
X1215250Y305870D01*
X1216200Y307780D01*
X1216910Y310320D01*
X1217140Y313170D01*
X1216910Y316030D01*
X1216200Y318570D01*
X1215250Y320480D01*
X1213830Y322070D01*
X1211930Y322700D01*
G01X1230980Y303650D02*
Y322700D01*
X1228140Y318890D01*
G01Y303650D02*
X1233820D01*
G01X1244820Y307460D02*
X1246240Y305240D01*
X1248130Y303970D01*
X1250270Y303650D01*
X1252160Y303970D01*
X1254060Y305550D01*
X1255240Y307460D01*
X1255480Y309360D01*
X1255010Y311590D01*
X1253350Y313170D01*
X1251690Y313810D01*
X1249560D01*
G01X1251690D02*
X1253110Y314760D01*
X1254300Y316350D01*
X1254770Y318250D01*
X1254300Y320160D01*
X1253110Y321750D01*
X1250980Y322700D01*
X1248850Y322380D01*
X1246710Y321110D01*
G01X1036190Y333240D02*
Y352290D01*
X1045190D01*
G01X1041870Y343080D02*
X1036190D01*
G01X1055000Y333240D02*
Y352290D01*
X1060690D01*
X1062580Y351340D01*
X1064010Y349120D01*
X1064480Y346580D01*
X1064010Y344040D01*
X1062820Y342130D01*
X1060690Y341180D01*
X1055000D01*
G01X1071680Y326890D02*
X1085900D01*
G01X1097840Y352290D02*
X1095940Y351660D01*
X1094520Y350070D01*
X1093570Y348160D01*
X1092860Y345620D01*
X1092630Y342760D01*
X1092860Y339910D01*
X1093570Y337370D01*
X1094520Y335460D01*
X1095940Y333870D01*
X1097840Y333240D01*
X1099740Y333870D01*
X1101160Y335460D01*
X1102110Y337370D01*
X1102820Y339910D01*
X1103050Y342760D01*
X1102820Y345620D01*
X1102110Y348160D01*
X1101160Y350070D01*
X1099740Y351660D01*
X1097840Y352290D01*
G01X1116890Y333240D02*
Y352290D01*
X1114050Y348480D01*
G01Y333240D02*
X1119730D01*
G01X1131670Y345940D02*
X1135940Y333240D01*
X1140210Y345940D01*
G01X1150490Y349120D02*
X1151910Y351020D01*
X1153570Y351970D01*
X1155460Y352290D01*
X1157830Y351660D01*
X1159490Y350070D01*
X1159970Y348160D01*
X1159730Y346260D01*
X1158780Y344670D01*
X1154040Y341490D01*
X1151910Y339270D01*
X1150490Y336100D01*
X1150010Y333240D01*
X1159970D01*
G01X1425900Y130700D02*
X1424480Y131660D01*
X1422820Y132290D01*
X1420930D01*
X1418790Y131340D01*
X1417140Y129750D01*
X1415950Y127840D01*
X1415000Y124670D01*
X1414760Y121810D01*
X1415240Y118950D01*
X1415950Y117050D01*
X1417370Y115140D01*
X1419030Y113870D01*
X1420690Y113240D01*
X1422350D01*
X1424010Y113870D01*
X1425430Y114830D01*
X1426620Y116100D01*
G01X1442580Y113240D02*
Y132290D01*
X1433810Y118640D01*
X1445670D01*
G01X1515950Y133240D02*
Y152290D01*
X1521870D01*
X1523770Y151340D01*
X1524960Y150070D01*
X1525430Y147530D01*
X1524960Y144990D01*
X1523530Y143400D01*
X1521870Y142450D01*
X1515950D01*
G01X1521870D02*
X1525430Y133240D01*
G01X1534530Y152290D02*
Y138640D01*
X1535470Y135780D01*
X1537370Y133870D01*
X1539740Y133240D01*
X1542110Y133870D01*
X1544010Y135780D01*
X1544950Y138640D01*
Y152290D01*
G01X1553580Y137050D02*
X1555000Y134830D01*
X1556890Y133560D01*
X1559030Y133240D01*
X1560920Y133560D01*
X1562820Y135140D01*
X1564000Y137050D01*
X1564240Y138950D01*
X1563770Y141180D01*
X1562110Y142760D01*
X1560450Y143400D01*
X1558320D01*
G01X1560450D02*
X1561870Y144350D01*
X1563060Y145940D01*
X1563530Y147840D01*
X1563060Y149750D01*
X1561870Y151340D01*
X1559740Y152290D01*
X1557610Y151970D01*
X1555470Y150700D01*
G01X1625500Y133650D02*
X1635460Y152700D01*
G01X1625500D02*
X1635460Y133650D01*
G01X1645030Y149530D02*
X1646450Y151430D01*
X1648110Y152380D01*
X1650000Y152700D01*
X1652370Y152070D01*
X1654030Y150480D01*
X1654510Y148570D01*
X1654270Y146670D01*
X1653320Y145080D01*
X1648580Y141900D01*
X1646450Y139680D01*
X1645030Y136510D01*
X1644550Y133650D01*
X1654510D01*
G54D11*
X0Y-100000D03*
Y0D03*
X1620000Y50000D03*
G54D12*
X0Y100000D03*
X1620000Y-50000D03*
G54D13*
X60000Y-375000D03*
Y375000D03*
X215000Y-180000D03*
Y180000D03*
X1065000Y0D03*
X1560000Y-375000D03*
Y375000D03*
G54D14*
X293750Y-250000D03*
Y250000D03*
X346250Y-250000D03*
Y250000D03*
X430000Y-145000D03*
Y-45000D03*
Y45000D03*
Y145000D03*
G54D15*
Y-210000D03*
Y210000D03*
X790000Y110000D03*
X1340000Y-110000D03*
Y110000D03*
G54D16*
X550000Y-175000D03*
Y-75000D03*
Y75000D03*
Y175000D03*
X1525000Y-50000D03*
Y50000D03*
G54D17*
X710000Y-75000D03*
Y75000D03*
X1425000Y-75000D03*
Y75000D03*
G54D18*
X865000Y-75000D03*
X1265000D03*
Y75000D03*
G54D19*
X865000D03*
M02*
